<?xml version="1.0" encoding="UTF-8"?>
<svg width="40" height="40" viewBox="0 0 40 40" xmlns="http://www.w3.org/2000/svg">
    <!-- Пиксельная яма -->
    <g transform="scale(4)">
        <!-- Основная форма (6x6 пикселей) -->
        <rect x="2" y="2" width="1" height="1" fill="#34495e"/>
        <rect x="3" y="2" width="1" height="1" fill="#2c3e50"/>
        <rect x="4" y="2" width="1" height="1" fill="#34495e"/>
        <rect x="5" y="2" width="1" height="1" fill="#2c3e50"/>
        
        <rect x="2" y="3" width="1" height="1" fill="#2c3e50"/>
        <rect x="3" y="3" width="1" height="1" fill="#1a1a1a"/>
        <rect x="4" y="3" width="1" height="1" fill="#1a1a1a"/>
        <rect x="5" y="3" width="1" height="1" fill="#34495e"/>
        
        <rect x="2" y="4" width="1" height="1" fill="#34495e"/>
        <rect x="3" y="4" width="1" height="1" fill="#1a1a1a"/>
        <rect x="4" y="4" width="1" height="1" fill="#1a1a1a"/>
        <rect x="5" y="4" width="1" height="1" fill="#2c3e50"/>
        
        <rect x="2" y="5" width="1" height="1" fill="#2c3e50"/>
        <rect x="3" y="5" width="1" height="1" fill="#34495e"/>
        <rect x="4" y="5" width="1" height="1" fill="#2c3e50"/>
        <rect x="5" y="5" width="1" height="1" fill="#34495e"/>
    </g>
</svg> 